<?xml version="1.0" encoding="utf-8"?>
<svg width="24px" height="18px" viewBox="0 0 24 18" version="1.1" xmlns:xlink="http://www.w3.org/1999/xlink" xmlns="http://www.w3.org/2000/svg">
  <desc>Created with Lunacy</desc>
  <g id="youtube">
    <path d="M23.4985 2.81639C23.2225 1.7078 22.4092 0.834703 21.3766 0.538406C19.505 0 12 0 12 0C12 0 4.49503 0 2.62336 0.538406C1.59077 0.83475 0.777524 1.7078 0.501503 2.81639C0 4.82578 0 9.01819 0 9.01819C0 9.01819 0 13.2106 0.501503 15.22C0.777524 16.3286 1.59077 17.1653 2.62336 17.4616C4.49503 18 12 18 12 18C12 18 19.505 18 21.3766 17.4616C22.4092 17.1653 23.2225 16.3286 23.4985 15.22C24 13.2106 24 9.01819 24 9.01819C24 9.01819 24 4.82578 23.4985 2.81639ZM9.54544 12.8246L9.54544 5.2118L15.8181 9.01828L9.54544 12.8246Z" id="Shape" fill="#FFFFFF" stroke="none" />
  </g>
</svg>